<?xml version="1.0" standalone="no"?>
<!DOCTYPE svg PUBLIC "-//W3C//DTD SVG 20010904//EN"
 "http://www.w3.org/TR/2001/REC-SVG-20010904/DTD/svg10.dtd">
<svg version="1.0" xmlns="http://www.w3.org/2000/svg"
 width="816.000000pt" height="673.000000pt" viewBox="0 0 816.000000 673.000000"
 preserveAspectRatio="xMidYMid meet">

<g transform="translate(0.000000,673.000000) scale(0.100000,-0.100000)"
fill="#000000" stroke="none">
<path d="M1523 4306 c-57 -19 -125 -59 -159 -96 -27 -29 -32 -30 -84 -24 -32
3 -74 1 -100 -6 -37 -10 -46 -9 -55 3 -44 61 -201 83 -265 37 -25 -18 -44 -23
-86 -21 -169 5 -282 -174 -196 -310 16 -24 36 -50 45 -58 9 -7 17 -18 17 -24
0 -5 -39 -51 -88 -101 -122 -127 -138 -186 -75 -283 34 -53 89 -84 162 -90
l59 -6 4 -71 c3 -49 13 -91 32 -131 67 -146 176 -222 351 -243 l60 -7 5 -132
c5 -127 6 -134 32 -159 21 -21 37 -27 73 -28 41 -1 50 3 76 32 26 29 29 39 29
100 l0 67 69 1 c44 1 92 10 134 25 60 21 70 22 99 10 56 -23 161 -43 196 -36
l32 6 0 -61 c0 -100 31 -140 110 -140 33 0 48 6 71 29 28 29 29 31 29 138 0
153 -2 149 81 157 82 7 176 47 234 97 180 158 178 438 -5 618 l-61 60 16 59
c8 33 15 73 15 89 0 107 -84 260 -174 317 -68 43 -125 59 -219 61 -75 1 -79 3
-115 38 -82 80 -243 118 -349 83z m221 -121 c28 -14 68 -45 88 -68 l36 -42
104 0 c116 0 144 -10 211 -74 60 -56 81 -104 81 -186 1 -52 -5 -84 -22 -123
-13 -30 -20 -62 -17 -72 3 -11 33 -38 66 -61 106 -75 156 -179 147 -308 -11
-151 -123 -251 -286 -256 -71 -2 -75 -3 -115 -43 -25 -25 -69 -52 -107 -68
-55 -22 -74 -25 -125 -20 -33 3 -80 17 -107 31 -60 31 -74 31 -145 -2 -45 -22
-72 -27 -127 -27 -93 -1 -137 16 -202 75 -50 45 -59 49 -104 49 -162 0 -287
97 -307 240 -15 104 -12 110 76 152 94 44 165 106 216 187 21 34 44 61 51 61
7 0 35 -22 61 -48 55 -55 137 -87 154 -61 21 33 0 122 -43 181 -9 13 -8 24 6
57 45 98 -5 230 -102 270 -17 7 -33 19 -36 26 -8 21 29 28 108 20 l72 -6 35
38 c72 80 117 101 218 102 49 1 75 -5 115 -24z m-714 -61 c34 -21 55 -57 63
-107 8 -49 21 -65 62 -73 83 -15 117 -114 60 -174 -24 -25 -36 -30 -75 -30
-54 0 -80 22 -100 83 -12 40 -51 74 -71 62 -6 -4 -33 3 -60 15 -40 19 -53 21
-71 12 -72 -36 -108 -34 -155 10 -18 16 -23 33 -23 68 0 35 5 51 23 67 41 38
62 44 113 33 42 -10 49 -8 78 13 17 13 38 26 46 30 30 11 82 7 110 -9z m-106
-437 c22 -16 14 -52 -15 -67 -26 -15 -59 4 -59 33 0 43 38 60 74 34z"/>
<path d="M2787 3774 c-4 -4 -7 -83 -7 -174 0 -137 3 -170 15 -180 22 -18 228
-8 279 13 79 34 120 121 97 205 -29 109 -76 136 -251 140 -69 2 -129 0 -133
-4z m219 -84 c39 -15 53 -39 54 -91 0 -64 -25 -95 -85 -102 -84 -9 -85 -7 -85
98 0 65 4 95 13 98 22 9 75 7 103 -3z"/>
<path d="M3244 3767 c-2 -7 -3 -89 -2 -182 l3 -170 50 0 50 0 3 58 3 57 54 0
54 0 34 -57 33 -58 57 -3 c31 -2 57 0 57 3 0 14 -60 122 -74 134 -22 18 -20
25 9 41 13 7 29 26 35 43 13 40 -12 93 -59 124 -31 21 -45 23 -168 23 -100 0
-135 -3 -139 -13z m230 -77 c28 -10 34 -38 14 -58 -7 -7 -39 -12 -75 -12 l-63
0 0 34 c0 24 5 36 18 39 31 8 80 7 106 -3z"/>
<path d="M3700 3595 l0 -185 170 0 170 0 6 24 c14 58 9 61 -121 66 -114 5
-120 6 -123 27 -3 21 0 22 90 25 l93 3 3 43 3 42 -95 0 c-95 0 -96 0 -96 25
l0 24 123 3 122 3 0 40 0 40 -172 3 -173 2 0 -185z"/>
<path d="M4146 3608 c-42 -95 -76 -179 -76 -185 0 -9 17 -13 51 -13 48 0 51 2
65 35 l14 35 88 0 88 0 9 -32 c10 -32 12 -33 68 -36 36 -2 57 1 57 8 0 6 -23
61 -50 123 -28 61 -63 140 -78 174 l-27 62 -66 1 -66 0 -77 -172z m163 25 c7
-21 15 -44 17 -50 4 -9 -7 -13 -40 -13 -25 0 -46 2 -46 4 0 15 41 96 48 96 5
0 14 -17 21 -37z"/>
<path d="M4560 3595 l0 -186 53 3 52 3 5 95 5 95 17 -35 c9 -19 27 -62 40 -95
l24 -60 45 -3 c29 -2 50 2 56 10 6 7 25 50 43 96 17 45 36 82 41 82 5 0 9 -43
9 -95 l0 -95 50 0 c62 0 62 -3 58 205 l-3 160 -71 3 -71 3 -20 -48 c-11 -26
-33 -81 -49 -120 -16 -40 -33 -71 -38 -70 -5 2 -15 19 -22 38 -7 19 -28 70
-46 114 l-34 80 -72 3 -72 3 0 -186z"/>
<path d="M5193 3760 c-52 -23 -82 -75 -67 -117 15 -42 56 -65 151 -82 76 -14
88 -19 88 -36 0 -17 -8 -20 -54 -23 -43 -3 -61 1 -83 18 -21 15 -40 20 -71 18
-55 -4 -60 -27 -15 -71 49 -49 134 -66 226 -43 71 17 122 57 122 96 0 59 -45
93 -147 111 -99 17 -103 18 -103 39 0 15 7 20 28 22 50 2 75 -3 100 -23 27
-21 63 -25 92 -9 21 11 18 28 -11 68 -38 52 -174 70 -256 32z"/>
<path d="M5640 3761 c-107 -44 -138 -173 -68 -278 18 -26 37 -38 87 -53 76
-24 92 -25 161 -4 67 20 113 63 108 101 -3 25 -8 28 -43 31 -35 3 -45 -2 -68
-28 -23 -25 -35 -30 -73 -30 -62 0 -94 32 -94 94 0 63 30 97 87 98 32 0 50 -6
73 -26 37 -31 106 -37 117 -10 9 25 -13 61 -57 90 -54 36 -163 43 -230 15z"/>
<path d="M5999 3763 c-6 -69 -4 -334 1 -343 4 -7 27 -10 56 -8 l49 3 3 58 3
57 49 0 c43 0 52 -4 66 -27 59 -96 55 -93 112 -93 65 0 66 10 12 91 -22 33
-40 63 -40 66 0 3 14 18 30 33 36 33 39 70 10 118 -31 51 -70 62 -220 62 -117
0 -130 -2 -131 -17z m234 -72 c14 -1 18 -8 15 -33 l-3 -33 -67 -3 -68 -3 0 34
c0 18 2 36 4 38 4 4 66 4 119 0z"/>
<path d="M6432 3738 c3 -40 5 -43 36 -46 l32 -3 0 -95 0 -94 -36 0 -35 0 3
-42 3 -43 116 -3 c108 -2 117 -1 122 17 2 10 2 31 0 45 -4 21 -11 26 -34 26
l-29 0 0 95 0 95 29 0 c32 0 42 20 34 64 l-5 26 -120 0 -119 0 3 -42z"/>
<path d="M6738 3774 c-10 -9 -11 -289 -2 -333 6 -29 9 -31 54 -31 52 0 60 10
60 76 l0 32 88 4 c67 3 94 9 114 23 77 58 77 152 0 210 -23 17 -46 20 -167 23
-77 2 -143 0 -147 -4z m242 -94 c43 -43 7 -80 -77 -80 l-53 0 0 44 c0 50 6 54
68 55 29 1 48 -5 62 -19z"/>
<path d="M7135 3770 c-3 -5 -3 -25 1 -45 l6 -35 59 0 58 0 3 -137 3 -138 53
-3 52 -3 0 140 0 141 65 0 65 0 0 45 0 45 -179 0 c-107 0 -182 -4 -186 -10z"/>
<path d="M2785 3049 c-4 -6 0 -16 9 -22 8 -7 24 -33 35 -59 20 -48 34 -58 47
-36 4 6 3 8 -4 5 -6 -4 -23 20 -41 58 -31 67 -35 72 -46 54z"/>
<path d="M2927 2993 c7 -85 23 -107 23 -32 0 61 -8 99 -21 99 -4 0 -6 -30 -2
-67z"/>
<path d="M5488 3053 c7 -3 16 -2 19 1 4 3 -2 6 -13 5 -11 0 -14 -3 -6 -6z"/>
<path d="M5063 3043 c9 -2 25 -2 35 0 9 3 1 5 -18 5 -19 0 -27 -2 -17 -5z"/>
<path d="M5467 3013 c-7 -7 3 -87 12 -96 5 -5 19 -7 31 -5 57 8 51 87 -7 99
-18 3 -34 5 -36 2z m58 -53 c0 -28 -4 -35 -20 -35 -16 0 -21 8 -23 38 -3 35
-1 38 20 35 19 -2 23 -9 23 -38z"/>
<path d="M2980 2966 c0 -25 5 -48 10 -51 6 -4 10 13 10 44 0 28 -4 51 -10 51
-5 0 -10 -20 -10 -44z"/>
<path d="M3077 3003 c-11 -10 -8 -83 3 -83 6 0 10 20 10 45 0 46 -2 50 -13 38z"/>
<path d="M3200 2958 c0 -28 3 -48 7 -44 4 4 6 25 4 47 -2 37 -1 40 21 37 19
-2 23 -10 26 -46 2 -23 6 -40 10 -38 4 2 6 25 4 50 -4 45 -5 46 -38 46 l-34 0
0 -52z"/>
<path d="M3360 2996 c0 -8 -11 -23 -25 -34 -14 -11 -25 -28 -25 -38 1 -16 4
-15 23 9 27 32 37 34 37 7 0 -11 4 -20 9 -20 5 0 8 8 6 18 -2 9 -4 29 -4 45
-1 27 -21 40 -21 13z"/>
<path d="M3420 2960 l0 -50 65 0 65 0 0 52 c0 58 -13 58 -14 0 -1 -30 -5 -37
-21 -37 -16 0 -21 9 -26 45 l-5 45 -5 -45 c-3 -33 -9 -46 -21 -48 -15 -3 -18
4 -18 42 0 25 -4 46 -10 46 -5 0 -10 -22 -10 -50z"/>
<path d="M3594 2997 c-3 -8 -4 -30 -2 -49 3 -29 7 -33 33 -35 28 -2 28 -1 5 5
-27 8 -38 45 -21 71 12 18 45 6 37 -14 -3 -8 -1 -15 5 -15 6 0 9 10 7 23 -4
27 -54 38 -64 14z"/>
<path d="M3700 2991 c0 -11 -3 -28 -7 -38 -6 -16 -5 -16 11 -4 15 13 18 12 23
-7 3 -12 9 -22 14 -22 13 0 12 4 -12 50 -24 45 -29 49 -29 21z"/>
<path d="M3770 2971 c0 -22 5 -43 10 -46 6 -4 10 10 10 34 0 22 -4 43 -10 46
-6 4 -10 -10 -10 -34z"/>
<path d="M3901 2963 c-1 -31 3 -53 10 -53 6 0 8 8 4 19 -9 30 11 34 29 6 9
-14 22 -25 28 -25 6 0 4 8 -5 18 -10 10 -17 26 -17 35 0 10 -5 14 -15 11 -9
-4 -18 2 -24 17 -8 20 -10 15 -10 -28z"/>
<path d="M3955 3000 c-3 -5 -2 -10 4 -10 5 0 13 5 16 10 3 6 2 10 -4 10 -5 0
-13 -4 -16 -10z"/>
<path d="M4015 2987 c-4 -14 -5 -36 -3 -48 2 -20 9 -24 38 -24 35 0 35 0 35
45 0 43 -1 45 -32 48 -27 3 -33 -1 -38 -21z m56 -2 c4 -51 1 -65 -16 -65 -20
0 -35 32 -28 58 6 25 42 30 44 7z"/>
<path d="M4146 2998 c-3 -7 -9 -35 -14 -62 -7 -35 -7 -45 1 -37 6 6 26 11 45
11 l33 0 -3 48 c-3 43 -5 47 -31 50 -16 2 -29 -2 -31 -10z m44 -39 c0 -36 -2
-40 -22 -37 -18 2 -22 9 -20 28 4 38 10 50 27 50 11 0 15 -11 15 -41z"/>
<path d="M4425 3000 c-3 -6 1 -7 9 -4 18 7 21 14 7 14 -6 0 -13 -4 -16 -10z"/>
<path d="M4486 2994 c-18 -46 1 -84 41 -84 31 0 48 36 34 73 -8 21 -17 27 -40
27 -17 0 -31 -6 -35 -16z m59 -34 c0 -28 -4 -35 -20 -35 -16 0 -21 8 -23 38
-3 35 -1 38 20 35 19 -2 23 -9 23 -38z"/>
<path d="M4598 3003 c6 -2 12 -22 12 -43 0 -21 5 -42 10 -45 6 -4 10 9 10 32
0 22 5 44 12 51 9 9 4 12 -22 11 -19 0 -29 -3 -22 -6z"/>
<path d="M4679 2983 c-14 -38 3 -73 36 -73 34 0 53 39 37 75 -16 36 -59 34
-73 -2z m56 -23 c0 -28 -4 -35 -20 -35 -13 0 -21 8 -23 23 -5 34 5 54 25 50
13 -2 18 -13 18 -38z"/>
<path d="M4788 2940 c-1 -40 0 -74 5 -77 4 -2 7 7 7 21 0 21 5 25 33 28 31 3
32 5 32 48 0 45 0 45 -37 48 l-36 3 -4 -71z m57 20 c0 -29 -4 -36 -22 -38 -20
-3 -23 1 -23 31 0 38 7 49 30 45 10 -2 15 -15 15 -38z"/>
<path d="M4910 2972 c0 -23 0 -45 0 -49 0 -5 12 -8 27 -8 29 0 44 28 25 47 -6
6 -9 1 -8 -14 1 -14 -5 -23 -14 -23 -10 0 -16 12 -17 39 -3 53 -13 59 -13 8z"/>
<path d="M5000 2960 c0 -29 3 -50 7 -47 3 4 6 25 6 47 0 22 -3 43 -6 47 -4 3
-7 -18 -7 -47z"/>
<path d="M5093 2980 c-9 -16 -23 -30 -30 -30 -7 0 -13 -10 -13 -22 1 -22 2
-22 26 7 13 17 29 29 34 28 6 -2 10 8 10 22 0 32 -5 32 -27 -5z"/>
<path d="M5237 3004 c-11 -11 -8 -134 3 -134 6 0 10 9 10 19 0 14 8 21 26 23
36 4 51 29 38 65 -7 21 -17 29 -40 31 -16 2 -33 0 -37 -4z m58 -44 c0 -29 -4
-36 -22 -38 -21 -3 -23 1 -23 38 0 37 2 41 23 38 18 -2 22 -9 22 -38z"/>
<path d="M5378 3002 c32 -10 32 -26 0 -30 -27 -3 -45 -32 -33 -52 3 -5 22 -10
41 -10 41 0 51 17 37 63 -7 26 -14 32 -38 34 -26 2 -27 1 -7 -5z m32 -62 c0
-15 -7 -20 -25 -20 -18 0 -25 5 -25 20 0 15 7 20 25 20 18 0 25 -5 25 -20z"/>
<path d="M5584 2996 c-3 -8 -4 -29 -2 -48 3 -28 7 -33 32 -36 16 -2 32 2 37
10 13 19 11 62 -3 76 -16 16 -57 15 -64 -2z m51 -36 c0 -44 -31 -56 -41 -16
-8 35 2 58 23 54 13 -2 18 -13 18 -38z"/>
<path d="M5695 2997 c14 -11 17 -22 12 -45 -4 -17 -2 -34 3 -37 6 -4 10 10 10
32 0 22 5 44 12 51 9 9 4 12 -22 12 -31 0 -32 -1 -15 -13z"/>
<path d="M5808 3003 c30 -6 23 -27 -10 -31 -26 -3 -39 -25 -31 -49 3 -8 22
-13 44 -13 l40 0 -3 48 c-3 45 -5 47 -33 49 -21 1 -23 0 -7 -4z m25 -57 c7
-17 -1 -26 -24 -26 -21 0 -33 15 -24 30 9 15 42 12 48 -4z"/>
<path d="M5894 2997 c-3 -8 -4 -30 -2 -49 3 -29 7 -33 33 -35 28 -2 28 -1 5 5
-20 7 -25 14 -25 42 0 25 5 36 18 38 12 2 17 -3 17 -17 0 -12 5 -21 11 -21 6
0 9 10 7 23 -4 27 -54 38 -64 14z"/>
<path d="M5998 2998 c7 -7 12 -29 12 -50 0 -21 5 -38 10 -38 6 0 10 20 10 44
0 26 5 46 13 49 6 3 -4 6 -22 6 -27 1 -32 -2 -23 -11z"/>
<path d="M6200 2965 c0 -25 5 -45 10 -45 6 0 10 18 10 41 0 33 3 40 18 37 12
-2 19 -16 22 -48 5 -34 7 -39 11 -20 2 14 2 37 0 53 -3 23 -8 27 -37 27 -34 0
-34 -1 -34 -45z"/>
<path d="M6317 3003 c-4 -3 -7 -26 -7 -50 l0 -44 38 3 c34 3 37 6 40 36 2 18
-2 40 -9 48 -12 14 -51 19 -62 7z m48 -43 c0 -25 -5 -36 -17 -38 -15 -3 -18 4
-18 38 0 34 3 41 18 38 12 -2 17 -13 17 -38z"/>
<path d="M6420 2965 c0 -25 5 -45 10 -45 6 0 10 10 10 22 0 21 1 21 30 -7 16
-16 33 -26 36 -22 3 3 -10 21 -30 39 -20 18 -36 39 -36 45 0 7 -4 13 -10 13
-5 0 -10 -20 -10 -45z"/>
<path d="M6565 3003 c35 -9 38 -21 7 -28 -59 -13 -52 -65 9 -65 37 0 39 2 39
31 0 46 -16 69 -48 68 -21 -1 -22 -2 -7 -6z m38 -64 c-4 -13 -12 -19 -26 -17
-29 4 -33 27 -5 37 29 11 37 6 31 -20z"/>
<path d="M6730 2960 l0 -50 34 0 c43 0 49 10 41 60 -6 37 -9 40 -41 40 l-34 0
0 -50z m55 31 c3 -5 1 -12 -5 -16 -6 -4 -4 -12 6 -22 18 -19 5 -37 -22 -31
-17 3 -21 23 -15 71 1 10 29 9 36 -2z"/>
<path d="M6850 2972 c0 -23 -1 -45 -2 -49 -2 -5 12 -9 30 -11 29 -3 32 -1 32
22 0 14 -4 26 -10 26 -5 0 -10 -9 -10 -21 0 -12 -5 -19 -12 -16 -7 2 -13 20
-13 39 0 20 -3 40 -7 44 -5 4 -8 -11 -8 -34z"/>
<path d="M6943 2965 c0 -27 2 -38 4 -22 2 15 2 37 0 50 -2 12 -4 0 -4 -28z"/>
<path d="M7072 2998 c-19 -19 -15 -66 7 -78 11 -5 26 -10 33 -9 7 0 3 4 -9 9
-17 7 -23 18 -23 40 0 22 6 33 23 40 21 8 21 9 2 9 -12 1 -26 -4 -33 -11z"/>
<path d="M7160 2958 c0 -58 13 -58 14 0 1 31 5 38 24 40 20 3 22 -1 22 -43 0
-25 3 -44 8 -42 6 4 7 22 3 85 -1 7 -15 12 -36 12 l-35 0 0 -52z"/>
<path d="M7272 2990 c0 -14 2 -19 5 -12 2 6 2 18 0 25 -3 6 -5 1 -5 -13z"/>
<path d="M7303 2972 c-18 -19 -33 -42 -33 -51 0 -11 11 -4 30 19 l29 35 1 -27
c0 -16 4 -28 9 -28 7 0 5 81 -2 86 -1 1 -17 -14 -34 -34z"/>
<path d="M7380 3000 c9 -5 13 -22 12 -44 -1 -19 2 -37 8 -41 6 -4 10 9 10 32
0 22 5 44 12 51 9 9 4 12 -22 12 -25 0 -31 -3 -20 -10z"/>
<path d="M7464 2996 c-3 -8 -4 -29 -2 -48 3 -29 7 -33 33 -35 21 -1 23 0 7 4
-28 5 -36 24 -28 58 4 17 13 25 27 25 16 0 20 -5 16 -20 -3 -11 -2 -20 2 -20
16 0 20 13 10 31 -11 22 -57 25 -65 5z"/>
<path d="M2783 2965 c0 -22 2 -30 4 -17 2 12 2 30 0 40 -3 9 -5 -1 -4 -23z"/>
<path d="M3312 2980 c0 -14 2 -19 5 -12 2 6 2 18 0 25 -3 6 -5 1 -5 -13z"/>
<path d="M4370 2960 c0 -23 5 -40 11 -40 6 0 9 7 6 15 -11 27 11 25 31 -2 11
-16 24 -25 28 -21 4 5 0 16 -9 26 -10 10 -17 24 -17 30 0 6 -7 9 -15 6 -9 -4
-15 0 -15 10 0 9 -4 16 -10 16 -5 0 -10 -18 -10 -40z"/>
<path d="M3030 2935 c0 -15 4 -24 10 -20 6 3 10 12 10 20 0 8 -4 17 -10 20 -6
4 -10 -5 -10 -20z"/>
<path d="M5111 2934 c0 -11 3 -14 6 -6 3 7 2 16 -1 19 -3 4 -6 -2 -5 -13z"/>
<path d="M4247 2913 c-4 -3 -7 -11 -7 -17 0 -6 5 -5 12 2 6 6 9 14 7 17 -3 3
-9 2 -12 -2z"/>
<path d="M6077 2913 c-4 -3 -7 -11 -7 -17 0 -6 5 -5 12 2 6 6 9 14 7 17 -3 3
-9 2 -12 -2z"/>
</g>
</svg>
